<svg width="180" height="180" viewBox="0 0 180 180" fill="none" xmlns="http://www.w3.org/2000/svg">
<path d="M119.958 90.0005L149.951 118.126L119.958 146.251L89.964 118.126L119.958 90.0005Z" fill="#BC4749"/>
<path d="M59.9413 89.9727L89.9214 118.086L59.9413 146.199L29.9611 118.086L59.9413 89.9727Z" fill="#161616"/>
<rect width="41.1543" height="41.1543" transform="matrix(0.729458 0.684026 -0.729458 0.684026 90.0074 61.9023)" fill="#BC4749"/>
<rect width="41.1543" height="41.1543" transform="matrix(0.729458 0.684026 -0.729458 0.684026 30.02 61.9023)" fill="#BC4749"/>
<path d="M119.986 33.75L150.007 61.9006L119.986 90.0511L89.9661 61.9006L119.986 33.75Z" fill="white"/>
<path d="M59.9996 33.75L90.0199 61.9006L59.9996 90.0511L29.9793 61.9006L59.9996 33.75Z" fill="#BC4749"/>
<rect width="41.1543" height="41.1543" transform="matrix(0.729458 0.684026 -0.729458 0.684026 149.98 61.875)" fill="#BC4749"/>
<path d="M90.0074 61.875L120.028 90.0256L90.0074 118.176L59.9871 90.0256L90.0074 61.875Z" fill="#BC4749"/>
</svg>
